<svg width="20.000000" height="20.000000" viewBox="0 0 20 20" fill="none" xmlns="http://www.w3.org/2000/svg" xmlns:xlink="http://www.w3.org/1999/xlink">
	<desc>
			Created with Pixso.
	</desc>
	<defs>
		<clipPath id="clip6_1432">
			<rect id="shopping cart" width="20.000000" height="20.000000" fill="white" fill-opacity="0"/>
		</clipPath>
	</defs>
	<g clip-path="url(#clip6_1432)">
		<path id="Icon" d="M2.5 3.33L3 3.33C3.85 3.33 4.57 3.97 4.66 4.81L5.33 11.01C5.42 11.85 6.14 12.5 6.99 12.5L14.2 12.5C14.96 12.5 15.63 11.98 15.82 11.24L16.96 6.73C17.23 5.68 16.44 4.65 15.35 4.65L5.5 4.65M5.83 16.66C5.37 16.66 5 16.29 5 15.83C5 15.37 5.37 15 5.83 15C6.29 15 6.66 15.37 6.66 15.83C6.66 16.29 6.29 16.66 5.83 16.66ZM5.52 15.52L6.14 15.52M5.52 16.14L6.14 16.14M15 16.66C14.54 16.66 14.16 16.29 14.16 15.83C14.16 15.37 14.54 15 15 15C15.46 15 15.83 15.37 15.83 15.83C15.83 16.29 15.46 16.66 15 16.66ZM14.68 15.52L15.31 15.52M14.68 16.14L15.31 " stroke="#FFFFFF" stroke-opacity="1.000000" stroke-width="1.500000"/>
	</g>
</svg>
