<svg width="18.000000" height="18.000000" viewBox="0 0 18 18" fill="none" xmlns="http://www.w3.org/2000/svg" xmlns:xlink="http://www.w3.org/1999/xlink">
	<desc>
			Created with Pixso.
	</desc>
	<defs/>
	<path id="Icon" d="M13.58 6.39L13.51 5.45C13.45 4.59 12.7 3.93 11.81 3.93L9.99 3.93L4.88 3.93L3.06 3.93C2.16 3.93 1.42 4.59 1.36 5.45L0.75 13.65C0.68 14.6 1.46 15.41 2.45 15.41L3.5 15.41M4.88 3.93L4.88 2.29C4.88 0.93 6.02 -0.17 7.43 -0.17C8.84 -0.17 9.99 0.93 9.99 2.29L9.99 3.93M15.41 9C16.42 9 17.25 9.82 17.25 10.83L17.25 15.41C17.25 16.42 16.42 17.25 15.41 17.25L8.08 17.25C7.07 17.25 6.25 16.42 6.25 15.41L6.25 10.83C6.25 9.82 7.07 9 8.08 9L15.41 9ZM13.58 11.75C13.58 12.76 12.76 13.58 11.75 13.58C10.73 13.58 9.91 12.76 9.91 " stroke="#807D7E" stroke-opacity="1.000000" stroke-width="1.500000"/>
</svg>
