<svg width="34" height="34" viewBox="0 0 34 34" fill="none" xmlns="http://www.w3.org/2000/svg">
<circle cx="17.1288" cy="16.9112" r="16.1796" fill="white"/>
<path fill-rule="evenodd" clip-rule="evenodd" d="M16.7193 12.7123C15.3445 11.1101 13.0519 10.6791 11.3293 12.1463C9.60674 13.6134 9.36423 16.0664 10.717 17.8016C11.8417 19.2442 15.2454 22.287 16.361 23.2718C16.4858 23.382 16.5482 23.4371 16.621 23.4587C16.6845 23.4776 16.754 23.4776 16.8176 23.4587C16.8904 23.4371 16.9528 23.382 17.0776 23.2718C18.1931 22.287 21.5969 19.2442 22.7216 17.8016C24.0743 16.0664 23.8614 13.598 22.1093 12.1463C20.3571 10.6945 18.0941 11.1101 16.7193 12.7123Z" stroke="#3C4242" stroke-width="1.26066" stroke-linecap="round" stroke-linejoin="round"/>
</svg>
