<svg width="38" height="39" viewBox="0 0 38 39" fill="none" xmlns="http://www.w3.org/2000/svg">
<rect x="0.75" y="0.75" width="36.5" height="36.5" rx="11.25" stroke="#BEBCBD" stroke-width="1.5"/>
<path d="M15.1954 20.026L16.2594 19.298C16.4274 19.6993 16.7774 20.0587 17.3094 20.376C17.8414 20.6933 18.4481 20.852 19.1294 20.852C20.4267 20.852 21.0754 20.3807 21.0754 19.438C21.0754 19.242 21.0194 19.0647 20.9074 18.906C20.8047 18.7473 20.6414 18.612 20.4174 18.5C20.1934 18.388 20.0021 18.304 19.8434 18.248C19.6941 18.1827 19.4654 18.1127 19.1574 18.038C18.8587 17.954 18.6861 17.9027 18.6394 17.884L18.2194 17.772C17.9487 17.6973 17.7574 17.6413 17.6454 17.604C17.5427 17.5667 17.3561 17.4967 17.0854 17.394C16.8147 17.282 16.6094 17.17 16.4694 17.058C16.3387 16.946 16.1847 16.806 16.0074 16.638C15.8394 16.47 15.7181 16.2787 15.6434 16.064C15.5687 15.84 15.5314 15.5973 15.5314 15.336C15.5314 14.4773 15.8534 13.8287 16.4974 13.39C17.1414 12.9513 17.9721 12.732 18.9894 12.732C19.8107 12.732 20.5387 12.914 21.1734 13.278C21.8174 13.642 22.2327 14.0807 22.4194 14.594L21.3554 15.252C21.2247 14.9347 20.9214 14.6547 20.4454 14.412C19.9787 14.1693 19.4467 14.048 18.8494 14.048C18.2614 14.048 17.8087 14.1553 17.4914 14.37C17.1741 14.5753 17.0154 14.874 17.0154 15.266C17.0154 15.4247 17.0574 15.574 17.1414 15.714C17.2254 15.8447 17.3187 15.952 17.4214 16.036C17.5334 16.12 17.6921 16.204 17.8974 16.288C18.1027 16.372 18.2661 16.4327 18.3874 16.47C18.5181 16.5073 18.7001 16.5587 18.9334 16.624C19.1761 16.68 19.3301 16.7173 19.3954 16.736C19.4234 16.7453 19.5354 16.7827 19.7314 16.848C19.9367 16.904 20.0954 16.9507 20.2074 16.988C20.3194 17.0253 20.4874 17.0907 20.7114 17.184C20.9354 17.268 21.1174 17.352 21.2574 17.436C21.3974 17.52 21.5561 17.632 21.7334 17.772C21.9107 17.912 22.0507 18.0567 22.1534 18.206C22.2561 18.346 22.3447 18.5187 22.4194 18.724C22.4941 18.9293 22.5314 19.1487 22.5314 19.382C22.5314 20.278 22.2187 20.9687 21.5934 21.454C20.9681 21.93 20.1001 22.168 18.9894 22.168C18.0374 22.168 17.2254 21.9673 16.5534 21.566C15.8907 21.1553 15.4381 20.642 15.1954 20.026Z" fill="#3C4242"/>
</svg>
