<svg width="38" height="39" viewBox="0 0 38 39" fill="none" xmlns="http://www.w3.org/2000/svg">
<rect x="0.75" y="0.75" width="36.5" height="36.5" rx="11.25" stroke="#BEBCBD" stroke-width="1.5"/>
<path d="M10.8855 12.9H12.4115L14.7775 16.344L17.1295 12.9H18.6555L15.5335 17.45L18.6555 22H17.1295L14.7775 18.556L12.4115 22H10.8855L14.0075 17.45L10.8855 12.9ZM19.3653 20.026L20.4293 19.298C20.5973 19.6993 20.9473 20.0587 21.4793 20.376C22.0113 20.6933 22.618 20.852 23.2993 20.852C24.5966 20.852 25.2453 20.3807 25.2453 19.438C25.2453 19.242 25.1893 19.0647 25.0773 18.906C24.9746 18.7473 24.8113 18.612 24.5873 18.5C24.3633 18.388 24.172 18.304 24.0133 18.248C23.864 18.1827 23.6353 18.1127 23.3273 18.038C23.0286 17.954 22.856 17.9027 22.8093 17.884L22.3893 17.772C22.1186 17.6973 21.9273 17.6413 21.8153 17.604C21.7126 17.5667 21.526 17.4967 21.2553 17.394C20.9846 17.282 20.7793 17.17 20.6393 17.058C20.5086 16.946 20.3546 16.806 20.1773 16.638C20.0093 16.47 19.888 16.2787 19.8133 16.064C19.7386 15.84 19.7013 15.5973 19.7013 15.336C19.7013 14.4773 20.0233 13.8287 20.6673 13.39C21.3113 12.9513 22.142 12.732 23.1593 12.732C23.9806 12.732 24.7086 12.914 25.3433 13.278C25.9873 13.642 26.4026 14.0807 26.5893 14.594L25.5253 15.252C25.3946 14.9347 25.0913 14.6547 24.6153 14.412C24.1486 14.1693 23.6166 14.048 23.0193 14.048C22.4313 14.048 21.9786 14.1553 21.6613 14.37C21.344 14.5753 21.1853 14.874 21.1853 15.266C21.1853 15.4247 21.2273 15.574 21.3113 15.714C21.3953 15.8447 21.4886 15.952 21.5913 16.036C21.7033 16.12 21.862 16.204 22.0673 16.288C22.2726 16.372 22.436 16.4327 22.5573 16.47C22.688 16.5073 22.87 16.5587 23.1033 16.624C23.346 16.68 23.5 16.7173 23.5653 16.736C23.5933 16.7453 23.7053 16.7827 23.9013 16.848C24.1066 16.904 24.2653 16.9507 24.3773 16.988C24.4893 17.0253 24.6573 17.0907 24.8813 17.184C25.1053 17.268 25.2873 17.352 25.4273 17.436C25.5673 17.52 25.726 17.632 25.9033 17.772C26.0806 17.912 26.2206 18.0567 26.3233 18.206C26.426 18.346 26.5146 18.5187 26.5893 18.724C26.664 18.9293 26.7013 19.1487 26.7013 19.382C26.7013 20.278 26.3886 20.9687 25.7633 21.454C25.138 21.93 24.27 22.168 23.1593 22.168C22.2073 22.168 21.3953 21.9673 20.7233 21.566C20.0606 21.1553 19.608 20.642 19.3653 20.026Z" fill="#3C4242"/>
</svg>
